<?xml version="1.0" encoding="UTF-8"?>
<svg version="1.1" xmlns="http://www.w3.org/2000/svg" width="440" height="456">
<path d="M0 0 C1.02139572 -0.0071553 2.04279144 -0.01431061 3.09513855 -0.02168274 C4.21039917 -0.02437164 5.32565979 -0.02706055 6.47471619 -0.02983093 C7.65422348 -0.03640213 8.83373077 -0.04297333 10.04898071 -0.04974365 C13.96163793 -0.06948611 17.87428164 -0.08115566 21.78697205 -0.09111023 C23.14116879 -0.09516144 24.49536534 -0.09927846 25.84956169 -0.10346031 C32.22531287 -0.12251966 38.60105255 -0.13673896 44.97682673 -0.14507228 C52.29097014 -0.15479331 59.60480676 -0.18097354 66.91884238 -0.22157317 C72.59730694 -0.25198895 78.27568501 -0.26656566 83.9542293 -0.26985329 C87.33249878 -0.27217864 90.710184 -0.28285179 94.08841133 -0.30631447 C127.47401355 -0.52359825 156.54109788 6.08220966 181.6268158 29.39717102 C200.95158496 49.9207472 209.37361433 77.1323998 209.2518158 104.89717102 C209.24999298 105.55669769 209.24817017 106.21622437 209.24629211 106.89573669 C209.19925721 117.01344937 208.69053123 126.39085285 205.9393158 136.14717102 C205.58740173 137.39885071 205.23548767 138.6505304 204.87290955 139.94013977 C197.69091905 163.88822677 183.03660893 183.9446188 160.9393158 196.14717102 C153.29566523 200.17793436 145.59688961 203.47358149 137.3143158 205.95967102 C136.67091248 206.15448059 136.02750916 206.34929016 135.36460876 206.55000305 C123.9095107 209.78180427 112.44501949 210.43817128 100.60215759 210.3742218 C99.11257434 210.37365612 97.62299053 210.37397731 96.13340759 210.37510681 C92.13218869 210.3756752 88.13109234 210.36400526 84.12990165 210.3499589 C79.93257521 210.33736477 75.73524525 210.33627425 71.53790283 210.33390808 C63.60867391 210.32771862 55.67950086 210.31134249 47.75029641 210.2912091 C38.71510822 210.26877073 29.67991721 210.2578368 20.64470804 210.24781823 C2.07621242 210.22697371 -16.49223139 210.19184759 -35.0606842 210.14717102 C-35.10744984 187.50272179 -35.14269541 164.85828056 -35.16430855 142.2137928 C-35.1746116 131.69905608 -35.18865337 121.1843494 -35.21156311 110.66963196 C-35.23152671 101.50269547 -35.2444077 92.33578075 -35.24886119 83.16882312 C-35.25146354 78.31710736 -35.25755996 73.46545385 -35.27214432 68.61375809 C-35.28577516 64.04198248 -35.28989575 59.47029444 -35.28689957 54.89850044 C-35.28744727 53.2256364 -35.2913918 51.55276926 -35.29909515 49.87992287 C-35.36456932 34.92090835 -34.59685844 21.77830925 -23.8731842 10.33467102 C-17.10973902 3.94445943 -9.34634956 0.0450779 0 0 Z M36.9393158 69.14717102 C36.9393158 92.57717102 36.9393158 116.00717102 36.9393158 140.14717102 C49.87189835 140.26364466 49.87189835 140.26364466 62.80455017 140.34248352 C68.08458165 140.36633273 73.36433389 140.39445094 78.64414978 140.44892883 C82.90411488 140.49260532 87.16378025 140.51635385 91.4239521 140.52667999 C93.04376502 140.53403246 94.66356277 140.54838969 96.28324699 140.57009125 C108.63421662 140.7623892 108.63421662 140.7623892 119.9393158 136.14717102 C120.73724548 135.65217102 121.53517517 135.15717102 122.35728455 134.64717102 C128.69773788 129.2724821 133.54522381 121.45111021 134.9393158 113.14717102 C135.7832957 99.96171449 134.92070445 88.75162661 126.1346283 78.15888977 C118.67197722 71.3203394 109.78951174 69.01590941 99.94590759 69.03364563 C98.90422409 69.03346483 98.90422409 69.03346483 97.84149647 69.03328037 C95.60714255 69.03402313 93.37287342 69.04162216 91.13853455 69.04951477 C89.75364726 69.05098617 88.36875942 69.05200566 86.98387146 69.05256653 C81.86484439 69.05779652 76.74582925 69.07175778 71.6268158 69.08467102 C54.4565033 69.11560852 54.4565033 69.11560852 36.9393158 69.14717102 Z " fill="#035C70" transform="translate(207.06068420410156,61.85282897949219)"/>
<path d="M0 0 C9.054375 0.04125 18.10875 0.0825 27.4375 0.125 C27.4375 23.225 27.4375 46.325 27.4375 70.125 C0.125 70.375 0.125 70.375 -8.4309082 70.42285156 C-10.70005283 70.45225016 -12.96917955 70.48308105 -15.23828125 70.515625 C-16.96757874 70.51731689 -16.96757874 70.51731689 -18.73181152 70.51904297 C-28.44794162 70.68861255 -37.78798502 72.46104097 -45.06640625 79.35546875 C-51.54219135 87.0148177 -53.95693883 95.52826286 -53.9375 105.375 C-53.93588867 106.21893311 -53.93427734 107.06286621 -53.93261719 107.93237305 C-53.80646123 114.34715609 -52.83875621 119.52147213 -49.5625 125.125 C-48.94375 126.218125 -48.325 127.31125 -47.6875 128.4375 C-42.73032485 134.70686857 -37.24798457 138.05237889 -29.5625 140.125 C-23.98471111 140.71240866 -18.43990673 140.73135398 -12.8359375 140.734375 C-11.23595527 140.74938149 -9.63598839 140.76611377 -8.03604126 140.78448486 C-3.85714954 140.82789409 0.32153333 140.84809823 4.50061035 140.86322021 C9.53198132 140.88635488 14.56312501 140.93875353 19.59431458 140.98616028 C27.20876852 141.05467506 34.82257214 141.08636516 42.4375 141.125 C42.4375 122.975 42.4375 104.825 42.4375 86.125 C66.1975 86.125 89.9575 86.125 114.4375 86.125 C114.59793524 109.39256595 114.59793524 109.39256595 114.6328125 119.35742188 C114.65666708 126.14067191 114.68480084 132.92370471 114.73925781 139.70678711 C114.78291455 145.17923543 114.80667898 150.65145057 114.81700897 156.12405968 C114.82436484 158.20552932 114.83872868 160.28698709 114.86042023 162.3683567 C114.99854464 176.17873461 114.87592215 187.96964988 105.5390625 199.0546875 C91.54124317 212.84436082 73.98870339 211.57748475 55.72265625 211.5234375 C53.30146701 211.52546277 50.88027836 211.52837797 48.45909119 211.53213501 C43.39315971 211.53654458 38.32738748 211.53017639 33.26147461 211.51611328 C26.82695961 211.49910522 20.39282244 211.50881832 13.95832157 211.52683067 C8.95714071 211.53777637 3.95604635 211.53417185 -1.04513741 211.5264473 C-3.41416025 211.52447062 -5.7831914 211.52681352 -8.15220451 211.53388596 C-26.3275806 211.57621496 -45.06818245 211.22029426 -62.375 205 C-63.23407959 204.6999707 -64.09315918 204.39994141 -64.97827148 204.09082031 C-79.06209688 198.96277625 -90.02627824 191.67743133 -100.5625 181.125 C-101.21476562 180.54363281 -101.86703125 179.96226562 -102.5390625 179.36328125 C-120.3808691 163.1915981 -127.87585735 135.77603499 -129.3125 112.625 C-130.69823114 83.57627136 -123.2391789 54.60159988 -103.5078125 32.6953125 C-75.75843989 2.9193229 -38.53970765 -0.24874979 0 0 Z " fill="#045D71" transform="translate(129.5625,201.875)"/>
<path d="M0 0 C19.8 0 39.6 0 60 0 C60.0825 6.64125 60.165 13.2825 60.25 20.125 C60.28641602 22.19023926 60.32283203 24.25547852 60.36035156 26.38330078 C60.56013522 45.75807472 56.12236288 61.30513209 42.44140625 75.75 C30.77012517 86.50625264 15.6970106 92 0 92 C0 61.64 0 31.28 0 0 Z " fill="#05A856" transform="translate(260,289)"/>
<path d="M0 0 C0 30.03 0 60.06 0 91 C-19.8 91 -39.6 91 -60 91 C-60.061875 84.833125 -60.12375 78.66625 -60.1875 72.3125 C-60.21481201 70.39477783 -60.24212402 68.47705566 -60.27026367 66.5012207 C-60.4349197 46.7883398 -56.14485043 30.49249653 -42 16 C-29.56703832 4.94274639 -16.54984565 0 0 0 Z " fill="#03A754" transform="translate(159,98)"/>
<path d="M0 0 C0.66 0.33 1.32 0.66 2 1 C-1.96 4.96 -5.92 8.92 -10 13 C-10.66 12.67 -11.32 12.34 -12 12 C-10.75479583 10.55834372 -9.50362077 9.12184348 -8.25 7.6875 C-7.55390625 6.88699219 -6.8578125 6.08648437 -6.140625 5.26171875 C-4.20854665 3.22034399 -2.30056874 1.60107149 0 0 Z " fill="#58C48E" transform="translate(123,109)"/>
</svg>
